<svg width="56" height="56" viewBox="0 0 56 56" fill="none" xmlns="http://www.w3.org/2000/svg">
<path d="M21.001 47.251H10.501C10.0368 47.251 9.59173 47.0666 9.26354 46.7384C8.93535 46.4102 8.75098 45.9651 8.75098 45.501V35.7258C8.75098 35.496 8.79624 35.2685 8.88419 35.0561C8.97213 34.8438 9.10104 34.6509 9.26354 34.4884L35.5135 8.23839C35.8417 7.9102 36.2868 7.72583 36.751 7.72583C37.2151 7.72583 37.6602 7.9102 37.9884 8.23839L47.7635 18.0135C48.0917 18.3417 48.2761 18.7868 48.2761 19.251C48.2761 19.7151 48.0917 20.1602 47.7635 20.4884L21.001 47.251Z" stroke="#E0E0E0" stroke-width="2.5" stroke-linecap="round" stroke-linejoin="round"/>
<path d="M29.75 14.0009L42 26.2509" stroke="#E0E0E0" stroke-width="2.5" stroke-linecap="round" stroke-linejoin="round"/>
</svg>
