<svg width="85" height="85" viewBox="0 0 85 85" fill="none" xmlns="http://www.w3.org/2000/svg">
<path d="M42.5 74.375C60.1041 74.375 74.375 60.1041 74.375 42.5C74.375 24.8959 60.1041 10.625 42.5 10.625C24.8959 10.625 10.625 24.8959 10.625 42.5C10.625 60.1041 24.8959 74.375 42.5 74.375Z" stroke="#E0E0E0" stroke-width="2" stroke-linecap="round" stroke-linejoin="round"/>
<path d="M42.1366 58.1197C42.939 58.1197 43.5896 57.4691 43.5896 56.6667C43.5896 55.8642 42.939 55.2137 42.1366 55.2137C41.3341 55.2137 40.6836 55.8642 40.6836 56.6667C40.6836 57.4691 41.3341 58.1197 42.1366 58.1197Z" fill="#E0E0E0"/>
<path d="M42.5 47.814V45.1577C44.3387 45.1577 46.1362 44.6125 47.6651 43.5909C49.1939 42.5694 50.3855 41.1174 51.0892 39.4186C51.7929 37.7198 51.977 35.8506 51.6182 34.0471C51.2595 32.2437 50.3741 30.5872 49.0739 29.287C47.7737 27.9868 46.1171 27.1014 44.3137 26.7426C42.5103 26.3839 40.641 26.568 38.9422 27.2717C37.2435 27.9753 35.7915 29.1669 34.7699 30.6958C33.7484 32.2247 33.2031 34.0221 33.2031 35.8609" stroke="#E0E0E0" stroke-width="2" stroke-linecap="round" stroke-linejoin="round"/>
</svg>
